<?xml version="1.0" encoding="utf-8"?>
<!-- Generator: Adobe Illustrator 24.0.2, SVG Export Plug-In . SVG Version: 6.00 Build 0)  -->
<svg version="1.1" id="Capa_1" xmlns="http://www.w3.org/2000/svg" xmlns:xlink="http://www.w3.org/1999/xlink" x="0px" y="0px"
	 viewBox="0 0 700 134.9" style="enable-background:new 0 0 700 134.9;" xml:space="preserve">
<style type="text/css">
	.st0{fill:#003B72;}
</style>
<g>
	<path class="st0" d="M41.4,87c2.8,2.3,6.1,3.5,9.6,4.5V10.8L0,53.6v81.2h7.1c11.1-17.1,6.6-28.2,6.6-28.2c3.2,4.2,10,4.3,10,4.3
		c-2.8,8-4.9,9.3-7.7,14.4c-2.2,4.1-1.8,8-1.5,9.4H46c1.2-2.3,3.6-7.6,1.7-9.6c-2.5-2.6-7.4-2.1-9.4-9.4c0,0,0.6-0.1,2.6-1.6
		c0,0,2.7,3.5,10,5.5V118c-7.4-2.3-8.5-5.1-8.5-5.1s4.9-5.3,4-11.3c-0.6,10-10.4,12.9-12.7,16.3c-2.3,3.4-0.4,9.1-0.4,9.1h-6.7
		c4.6-8.9,4.3-11.9,1.4-21c-2.8-9.1,3.8-17.2,3.8-17.2c-6.6,6.2-6.2,14.7-5.3,17.4c0.8,2.3,0.9,4.2,0.9,4.2
		c-15.2-1.1-19.3-11-17.4-22.3c1.8-10.8,4.7-18.3,12.7-25.1c4.6-2.9,4.3-6.1,4.3-6.1c0.9-1.1,2.1-2.1,4.7-1.7
		c2.6,0.4,4.2-2.5,4.2-2.5c4.5-0.2,6,0.9,6,0.9l0.7,3.7c0,0-1.3-1.7-3-1.7s-2.8,1.1-3.5,2c0,0,1.8-1.5,3.5-1.3
		c1.6,0.2,2.3,1.1,2.8,1.8C42,58.6,41,60,41.2,61.7c0.5,4.6-1.8,6.3-3.5,8c0,0-1.3,0.4-3.7,0.5c0,0-13.1,0.3-8.1,14.6
		c0,0-3.4-11.9,7.8-13.3c0.8-0.1,1.9-0.4,1.9-0.4C32.1,80.9,41.4,87,41.4,87z M21.8,61.9c-6.1-1.6-7.1-6.9-7.1-6.9
		c-0.9-8.9,7.9-10.4,7.9-10.4s-5.1,2.5-4.8,6.3c0.2,3.2,5.1,3.8,6.4,4s1.3,2.5,1.3,2.5C25.2,60.6,21.8,61.9,21.8,61.9z M43.5,58.6
		c5.4,0.2,3.9-6.8,3.9-6.8s3.6,7.7-3.6,10.4c0,0-0.7,0.2-1,0.4s-0.5,0.1-0.5,0.1C41.8,59.4,43.5,58.6,43.5,58.6z"/>
	<path class="st0" d="M63.4,120.2c-3.3-0.3-6.1-0.7-8.5-1.2v15.8h19.3C73.4,132.1,69.6,120.8,63.4,120.2z"/>
	<path class="st0" d="M55,43v49.7c2,0.6,3.9,1.2,5.8,2.1c6.6,3,10.8,11.5,11.3,18.5c0.5,6.9,1.8,11.4,5.2,16.6
		c1.9,2.8,2.9,4.3,3.5,5H88V0L55,43z M68.3,100.8c0,0-1.1-2.1-1.9-2.6c0,0,8.1-3.2,1.7-8.3c-6.4-5.1-11.5-4-10.6-10
		c0,0,0.2-1.5,1.5-2.6c2.6-2.2,1.6-4,3.8-5.5c2.6-1.9,5.7,0.9,7.7-2.8c0,0-1.1,9.4-9.8,9.4c0,0-3.8,2.8,1.1,5.5
		c4.3,2.3,12,5.3,11.7,11C73.5,98.1,69.7,100,68.3,100.8z"/>
	<g>
		<path class="st0" d="M171.2,113c0,15.6-12.4,21.9-31.3,21.9h-32V44.6h28.6c19.5,0,32,6.2,32,21.2V71c0,9.1-4.7,14.5-13,17.2
			c9.8,2.4,15.7,8.5,15.7,19.6V113z M152.7,68.6c0-9.3-8.1-10.9-18.4-10.9h-10.5v25.1h10.3c10.3,0,18.5-1.2,18.5-10.1L152.7,68.6
			L152.7,68.6z M155.4,106.3c0-10.2-8.3-11.7-18.1-11.7h-13.4v27h13.6c10.1,0,18-2,18-11.4L155.4,106.3L155.4,106.3z"/>
		<path class="st0" d="M195.3,68.5c0-18.3,13.5-24.1,34.2-24.1c7.6,0,15,0.5,23.5,2.2c0.6,3.6,0.6,8.9,0,12.4
			c-7.3-1.2-13.7-1.7-21.1-1.7c-11.8,0-21.3,1.3-21.3,14.1v36c0,12.7,9.5,14.1,21.3,14.1c7.6,0,14.8-1.6,21.4-3.1
			c1,3.6,1.6,8.2,1.6,12.3c-8.8,2.7-18,4-25.3,4c-20.7,0-34.2-5.8-34.2-24.1L195.3,68.5L195.3,68.5z"/>
		<path class="st0" d="M341.8,113c0,15.6-12.4,21.9-31.3,21.9h-32V44.6h28.6c19.5,0,32,6.2,32,21.2V71c0,9.1-4.7,14.5-13,17.2
			c9.8,2.4,15.7,8.5,15.7,19.6L341.8,113L341.8,113z M323.3,68.6c0-9.3-8.1-10.9-18.4-10.9h-10.5v25.1h10.3
			c10.3,0,18.5-1.2,18.5-10.1v-4.1H323.3z M326,106.3c0-10.2-8.3-11.7-18.1-11.7h-13.4v27H308c10.1,0,18-2,18-11.4V106.3z"/>
	</g>
</g>
</svg>
